# xmcd CD database file
#
# Track frame offsets:
#	150
#	121648
#	212599
#
# Disc length: 3609 seconds
#
# Revision: 0
# Processed by: cddbd v1.5.2PL0 Copyright (c) Steve Scherf et al.
# Submitted via: CDex 2.07
#
DISCID=1d0e1703
DTITLE=Charles Mingus - Jazz in Detroit/Strata Concert Gallery/46 Selden [CD3)
DYEAR=1973
DGENRE=Jazz
TTITLE0=C Jam Blues
TTITLE1=Orange was the color of her dress, then blue silk
TTITLE2=Dizzy profile
EXTD=YEAR: 1973
EXTT0=
EXTT1=
EXTT2=
PLAYORDER=
